<svg width="512" height="512" viewBox="0 0 512 512" fill="none" xmlns="http://www.w3.org/2000/svg">
  <!-- Background Circle with Gradient -->
  <defs>
    <linearGradient id="bgGradient" x1="0%" y1="0%" x2="100%" y2="100%">
      <stop offset="0%" style="stop-color:#6366f1;stop-opacity:1" />
      <stop offset="100%" style="stop-color:#8b5cf6;stop-opacity:1" />
    </linearGradient>
    <linearGradient id="handGradient" x1="0%" y1="0%" x2="100%" y2="100%">
      <stop offset="0%" style="stop-color:#ffffff;stop-opacity:1" />
      <stop offset="100%" style="stop-color:#f0f0f0;stop-opacity:1" />
    </linearGradient>
  </defs>
  
  <!-- Circular Background -->
  <circle cx="256" cy="256" r="240" fill="url(#bgGradient)"/>
  
  <!-- Lightning Bolt (Quick) - Stylized -->
  <path d="M 280 100 L 200 260 L 250 260 L 230 400 L 340 220 L 290 220 Z" 
        fill="#fbbf24" 
        stroke="#f59e0b" 
        stroke-width="4" 
        stroke-linejoin="round"/>
  
  <!-- Hand Icon - Simplified Modern Hand -->
  <g transform="translate(150, 200)">
    <!-- Palm -->
    <ellipse cx="80" cy="100" rx="50" ry="60" fill="url(#handGradient)" stroke="#e5e7eb" stroke-width="3"/>
    
    <!-- Thumb -->
    <ellipse cx="50" cy="90" rx="18" ry="35" fill="url(#handGradient)" stroke="#e5e7eb" stroke-width="3" transform="rotate(-30 50 90)"/>
    
    <!-- Index Finger -->
    <rect x="65" y="40" width="20" height="50" rx="10" fill="url(#handGradient)" stroke="#e5e7eb" stroke-width="3"/>
    
    <!-- Middle Finger -->
    <rect x="88" y="30" width="20" height="60" rx="10" fill="url(#handGradient)" stroke="#e5e7eb" stroke-width="3"/>
    
    <!-- Ring Finger -->
    <rect x="111" y="40" width="20" height="50" rx="10" fill="url(#handGradient)" stroke="#e5e7eb" stroke-width="3"/>
    
    <!-- Pinky -->
    <rect x="134" y="50" width="18" height="45" rx="9" fill="url(#handGradient)" stroke="#e5e7eb" stroke-width="3"/>
  </g>
  
  <!-- Accent Circle (represents speed/motion) -->
  <circle cx="380" cy="140" r="30" fill="#fbbf24" opacity="0.3"/>
  <circle cx="400" cy="160" r="20" fill="#f59e0b" opacity="0.4"/>
</svg>

